<svg width="34" height="35" viewBox="0 0 34 35" fill="none" xmlns="http://www.w3.org/2000/svg">
<g id="Icon">
<g id="Group 2">
<path id="Vector" d="M20.1283 17.1855C19.9607 17.1855 19.805 17.1394 19.6668 17.0653V17.0672C19.6668 17.3309 19.5643 17.5786 19.3783 17.764C19.1924 17.95 18.9449 18.0525 18.6815 18.0525C18.5115 18.0525 18.3539 18.0053 18.2141 17.9292C18.2 18.1704 18.1036 18.3959 17.9316 18.5681C17.7456 18.7541 17.4982 18.8566 17.2346 18.8566C16.7109 18.8566 16.2857 18.4449 16.2551 17.929C16.093 18.0166 15.9099 18.0625 15.7209 18.0504C15.2058 18.0166 14.8024 17.5715 14.8024 17.0369V12.6053L14.2978 13.4795C14.1056 13.8139 13.7458 14.0215 13.3584 14.0215C13.1697 14.0215 12.9832 13.9719 12.8181 13.8773C12.6124 13.7581 12.4653 13.5667 12.4042 13.3378C12.3427 13.1087 12.3745 12.8691 12.4934 12.6637C12.4935 12.6637 14.1444 9.80485 14.2452 9.62924C14.2571 9.60284 14.2912 9.52626 14.3203 9.46099C14.348 9.39867 14.3718 9.33471 14.3946 9.27043C14.8924 7.86487 16.1252 6.99176 17.6119 6.99176C19.5426 6.99176 21.1133 8.69498 21.1133 10.7885L21.1135 16.2C21.1135 16.4634 21.0112 16.7109 20.8254 16.897C20.6394 17.083 20.3919 17.1855 20.1282 17.1855L20.1283 17.1855ZM17.612 7.51531C16.3344 7.51531 15.3162 8.2369 14.888 9.44552C14.8606 9.52226 14.8321 9.59901 14.7988 9.67379C14.7022 9.89043 14.7022 9.89043 14.675 9.92159L14.6714 9.91847C14.5366 10.1728 14.1361 10.8663 12.9467 12.9258C12.8978 13.0102 12.8849 13.1083 12.9098 13.2021C12.935 13.2959 12.9956 13.3749 13.0794 13.4233C13.3395 13.5727 13.6957 13.4763 13.8439 13.218L14.8375 11.4977C14.8969 11.3952 15.0169 11.3449 15.1321 11.376C15.2465 11.4067 15.3261 11.5105 15.3261 11.6289V17.037C15.3261 17.2922 15.5186 17.5124 15.7552 17.528C15.8917 17.5352 16.0189 17.4895 16.1145 17.394C16.2015 17.3071 16.2493 17.1913 16.2493 17.0675V13.5305C16.2493 13.3859 16.3666 13.2686 16.5112 13.2686C16.6559 13.2686 16.7731 13.3857 16.7731 13.5305L16.773 17.8715C16.773 18.126 16.9801 18.3331 17.2346 18.3331C17.3583 18.3331 17.4744 18.2852 17.5615 18.1983C17.6484 18.1112 17.6963 17.9951 17.6963 17.8715V13.5305C17.6963 13.3859 17.8133 13.2686 17.9581 13.2686C18.1028 13.2686 18.22 13.3857 18.22 13.5305L18.2199 17.0268V17.0675C18.2199 17.3219 18.427 17.529 18.6817 17.529C18.8052 17.529 18.9209 17.4809 19.0085 17.3937C19.0954 17.3069 19.1433 17.1911 19.1433 17.0673V13.5303C19.1433 13.3857 19.2604 13.2684 19.4052 13.2684C19.5499 13.2684 19.6671 13.3855 19.6671 13.5303L19.6668 16.2002C19.6668 16.4548 19.8739 16.662 20.1283 16.662C20.2521 16.662 20.3678 16.6139 20.4548 16.5272C20.542 16.4399 20.5897 16.3238 20.5897 16.2002L20.5899 10.7887C20.5899 8.98394 19.254 7.51536 17.6119 7.51536L17.612 7.51531Z" fill="#103E13"/>
<path id="Vector_2" d="M9.83859 20.9466L13.6389 18.6668C14.0971 18.3916 14.6867 18.5085 14.9806 18.9331C15.0878 19.0878 15.1426 19.268 15.1511 19.4515C15.2928 19.3776 15.4469 19.3374 15.6039 19.3374C15.6842 19.3374 15.7649 19.3474 15.8446 19.3672C16.1 19.431 16.3151 19.5906 16.4504 19.8162C16.5859 20.0422 16.6254 20.307 16.5616 20.5621C16.5027 20.7981 16.3592 20.9967 16.1597 21.1329C16.2992 21.2153 16.4196 21.3276 16.5052 21.4706C16.6407 21.6966 16.6802 21.9613 16.6165 22.2166C16.5528 22.4716 16.3932 22.6868 16.1672 22.8224L16.1659 22.8232C16.303 22.9054 16.4212 23.0166 16.5059 23.1575C16.6415 23.3834 16.681 23.6483 16.6172 23.9036C16.5533 24.1588 16.3937 24.3739 16.168 24.5094L11.5278 27.2932C10.6617 27.8126 9.66053 27.9918 8.70905 27.7975C7.74904 27.6013 6.95398 27.0495 6.47056 26.2436C5.70552 24.9686 5.82017 23.4622 6.76919 22.3124C6.81265 22.2599 6.85545 22.2065 6.89432 22.151C6.93548 22.0925 6.98353 22.0236 6.99993 22C7.09816 21.8245 8.70104 18.9366 8.70088 18.9369C8.86274 18.6449 9.16612 18.4795 9.47901 18.4797C9.62497 18.4797 9.77305 18.5156 9.90967 18.5914C10.0746 18.6836 10.2132 18.8179 10.3101 18.9797C10.5094 19.3118 10.5164 19.7274 10.3288 20.0637L9.83859 20.9466ZM9.86138 19.249C9.81055 19.1642 9.74068 19.0966 9.65524 19.0487C9.47862 18.951 9.25625 19.0146 9.15901 19.1906C8.01206 21.2569 7.62109 21.9611 7.4702 22.2116L7.47365 22.2125C7.46102 22.2544 7.46102 22.2544 7.32294 22.4517C7.27604 22.5185 7.22504 22.5826 7.17305 22.6457C6.357 23.6345 6.26225 24.8787 6.91935 25.9743C7.32638 26.6529 7.99909 27.1181 8.81362 27.2844C9.63702 27.4519 10.5049 27.2961 11.2581 26.8441L15.8988 24.0602C16.0048 23.9967 16.0795 23.8959 16.1094 23.7763C16.1392 23.6569 16.1207 23.5328 16.0571 23.4269C15.9262 23.2087 15.642 23.1371 15.4239 23.2684L13.1346 24.6419C13.0106 24.7163 12.8495 24.6763 12.7753 24.5522C12.7008 24.4282 12.741 24.2673 12.865 24.1929L15.1545 22.8194L15.898 22.3734C16.0039 22.3097 16.0789 22.2089 16.1087 22.0897C16.1386 21.9701 16.12 21.8458 16.0564 21.74C15.9254 21.5218 15.6412 21.4508 15.4232 21.5816L12.3902 23.4011C12.2659 23.4757 12.1053 23.4354 12.0309 23.3114C11.9564 23.1874 11.9968 23.0266 12.1206 22.9521L15.8431 20.719C15.949 20.6554 16.0238 20.5547 16.0536 20.4352C16.0835 20.3158 16.0649 20.1916 16.0015 20.0857C15.938 19.9799 15.8372 19.9051 15.7176 19.8753C15.5974 19.8455 15.4738 19.864 15.3681 19.9273L14.679 20.3407C14.6789 20.3407 14.6789 20.3409 14.6787 20.3409H14.6786L11.6457 22.1604C11.5214 22.2352 11.3607 22.1948 11.2864 22.0707C11.2119 21.9467 11.2523 21.7858 11.3761 21.7114L14.4091 19.8919C14.5151 19.8282 14.59 19.7274 14.6198 19.6082C14.6526 19.4773 14.6277 19.3435 14.55 19.2313C14.4152 19.0363 14.1269 18.9845 13.9083 19.1159L9.27095 21.8978C9.16944 21.9585 9.0394 21.9438 8.95428 21.8616C8.86901 21.7793 8.84982 21.6499 8.90722 21.5464L9.8715 19.8091C9.96826 19.6354 9.96448 19.4209 9.86133 19.249L9.86138 19.249Z" fill="#103E13"/>
<path id="Vector_3" d="M27.9983 26.2435C27.515 27.0496 26.7202 27.6012 25.76 27.7974C24.8084 27.9914 23.8075 27.8125 22.9413 27.2931L18.3006 24.5092C18.0748 24.3737 17.9151 24.1586 17.8511 23.903C17.7876 23.648 17.8273 23.3832 17.9626 23.1575C18.0471 23.0165 18.1655 22.9053 18.3027 22.8231L18.3014 22.8223C18.0756 22.6869 17.9159 22.4717 17.8523 22.2165C17.7883 21.9614 17.828 21.6963 17.9634 21.4704C18.0507 21.3252 18.1702 21.2118 18.3067 21.1312C18.1086 20.995 17.9659 20.797 17.9072 20.5622C17.8432 20.3068 17.8829 20.042 18.0184 19.8163C18.1537 19.5905 18.369 19.4309 18.6242 19.3672C18.7039 19.3471 18.7847 19.3373 18.8648 19.3373C19.0219 19.3375 19.176 19.3773 19.3177 19.4514C19.3264 19.2679 19.381 19.0877 19.4883 18.9331C19.7823 18.5088 20.3714 18.3914 20.8302 18.6667L24.6304 20.9462L24.1406 20.0639C23.9527 19.7271 23.9595 19.3115 24.1588 18.9793C24.2559 18.8176 24.3946 18.6833 24.5604 18.5903C24.6967 18.5149 24.8443 18.4791 24.9899 18.4791C25.3026 18.4793 25.6063 18.6442 25.768 18.9363C26.3315 19.9516 27.3948 21.8664 27.4696 22.0001C27.4855 22.0232 27.5336 22.0921 27.5747 22.1506C27.6139 22.2062 27.6562 22.2593 27.7 22.3121C28.6489 23.4624 28.7633 24.9686 27.9983 26.2436L27.9983 26.2435ZM27.296 22.6459C27.2438 22.5827 27.1927 22.5183 27.1461 22.4519C27.0044 22.2508 27.0008 22.2456 26.9901 22.1929C26.8245 21.9189 26.4204 21.1915 25.3097 19.1904C25.2123 19.0147 24.9909 18.9506 24.8146 19.048C24.7279 19.0966 24.6582 19.1643 24.6073 19.2491C24.5044 19.4208 24.5004 19.6353 24.5977 19.8095L25.5616 21.5463C25.6192 21.65 25.6 21.7792 25.5149 21.8615C25.4299 21.944 25.3 21.9584 25.198 21.8977L20.5607 19.1158C20.3421 18.9847 20.054 19.0361 19.9188 19.2312C19.8411 19.3434 19.8163 19.4772 19.8488 19.6079C19.8787 19.7273 19.9536 19.828 20.0597 19.8916C20.06 19.8918 20.0602 19.8921 20.0605 19.8923L23.0926 21.7113C23.2166 21.7857 23.2568 21.9464 23.1823 22.0706C23.1078 22.1944 22.9473 22.2349 22.823 22.1603L19.1005 19.9272C18.9949 19.8639 18.8706 19.8452 18.7512 19.8752C18.6315 19.9051 18.5308 19.9798 18.4673 20.0859C18.4037 20.1917 18.3854 20.3159 18.4149 20.4353C18.4447 20.5546 18.5197 20.6555 18.6256 20.7191L19.35 21.1536L22.3479 22.9522C22.4719 23.0267 22.5121 23.1874 22.4376 23.3115C22.3632 23.4354 22.2026 23.4757 22.0783 23.4012L19.0456 21.5817C18.8275 21.4505 18.5434 21.5217 18.4123 21.7402C18.3486 21.8461 18.3303 21.9702 18.3598 22.0896C18.3896 22.209 18.4646 22.3097 18.5707 22.3735L19.3142 22.8196L21.6034 24.193C21.7273 24.2674 21.7675 24.4282 21.6931 24.5523C21.6186 24.6761 21.4581 24.7168 21.3338 24.642L19.0446 23.2686C18.939 23.2053 18.8152 23.1866 18.6951 23.2166C18.5757 23.2464 18.4747 23.3212 18.4113 23.427C18.3478 23.5329 18.3293 23.6572 18.3588 23.7764C18.3886 23.8958 18.4636 23.9965 18.5697 24.0603L23.2104 26.8442C23.9635 27.296 24.8319 27.4525 25.6549 27.2845C26.4692 27.1183 27.142 26.653 27.549 25.9744C28.2068 24.8786 28.1121 23.6342 27.2963 22.6459L27.296 22.6459Z" fill="#103E13"/>
</g>
</g>
</svg>
