<svg width="35" height="35" viewBox="0 0 35 35" fill="none" xmlns="http://www.w3.org/2000/svg">
<g id="Icon">
<path id="Vector" d="M17.3729 7.68787C14.887 7.68787 12.8633 9.73005 12.8633 12.2265C12.8633 13.8057 13.6743 15.2002 14.8989 16.013C13.4198 16.5075 12.14 17.4318 11.2014 18.641C10.6824 18.2418 10.1025 17.9208 9.47738 17.6907C10.4253 16.987 11.0448 15.8565 11.0448 14.5859C11.0448 12.4686 9.33242 10.7354 7.22798 10.7354C5.12355 10.7354 3.41116 12.4686 3.41116 14.5859C3.41116 15.8572 4.03115 16.9882 4.9799 17.692C2.46808 18.6189 0.674164 21.0456 0.674164 23.9016V25.9078C0.674421 26.0607 0.735597 26.2072 0.844067 26.3149C0.952536 26.4229 1.09931 26.483 1.25225 26.4825H10.054C10.0754 26.4848 10.0967 26.4861 10.118 26.4859H24.6282C24.6495 26.4861 24.6711 26.4848 24.6922 26.4825H33.4946C33.811 26.4812 34.0673 26.2245 34.0681 25.9078V23.9016C34.0681 21.0456 32.2773 18.6189 29.7668 17.6917C30.7155 16.9882 31.3355 15.8569 31.3355 14.5856C31.3355 12.4684 29.6231 10.7351 27.5187 10.7351C25.4143 10.7351 23.7018 12.4684 23.7018 14.5856C23.7018 15.8562 24.3216 16.9869 25.2695 17.6905C24.6431 17.921 24.063 18.2431 23.5433 18.6433C22.605 17.4334 21.327 16.5078 19.848 16.013C21.0723 15.2002 21.8836 13.8057 21.8836 12.2265C21.8836 9.73005 19.8588 7.68787 17.373 7.68787H17.3729ZM17.3729 8.83941C19.232 8.83941 20.7308 10.3483 20.7308 12.2265C20.7308 14.09 19.2554 15.5842 17.4168 15.6081C17.4022 15.6081 17.3878 15.6061 17.3729 15.6061C17.358 15.6061 17.3438 15.6081 17.3289 15.6081C15.4903 15.5845 14.0159 14.0901 14.0159 12.2265C14.0159 10.348 15.5134 8.83941 17.3726 8.83941H17.3729ZM7.22805 11.8869C8.70322 11.8869 9.89332 13.0842 9.89332 14.5858C9.89332 16.0775 8.71861 17.2696 7.25733 17.2858C7.24756 17.2858 7.23805 17.2848 7.22803 17.2848C7.21826 17.2848 7.20875 17.2858 7.19873 17.2858C5.73745 17.2696 4.56274 16.0772 4.56274 14.5858C4.56274 13.0842 5.75284 11.8869 7.22801 11.8869H7.22805ZM27.5183 11.8869C28.9935 11.8869 30.1836 13.0842 30.1836 14.5858C30.1836 16.0775 29.0089 17.2696 27.5476 17.2858C27.5378 17.2858 27.5283 17.2848 27.5183 17.2848C27.5085 17.2848 27.499 17.2858 27.489 17.2858C26.0277 17.2696 24.853 16.0772 24.853 14.5858C24.853 13.0842 26.0431 11.8869 27.5183 11.8869H27.5183ZM17.3288 16.7596C17.3434 16.7599 17.3578 16.7617 17.3727 16.7617C17.3874 16.7617 17.4018 16.7596 17.4167 16.7596C21.1039 16.7833 24.0549 19.7596 24.0549 23.4853L24.0546 25.334H10.6914V23.4853C10.6914 19.7592 13.6414 16.7833 17.3282 16.7596H17.3288ZM7.18396 18.4386C7.19861 18.4389 7.21301 18.4407 7.22792 18.4407C7.24282 18.4407 7.25696 18.4386 7.27187 18.4386C8.51903 18.4487 9.65722 18.8787 10.5635 19.5982C9.915 20.7456 9.53996 22.0701 9.53996 23.4857V25.3299H1.82525V23.9015C1.82525 20.8735 4.20599 18.4623 7.18383 18.4384L7.18396 18.4386ZM27.4742 18.4386C27.4891 18.4389 27.5033 18.4407 27.5182 18.4407C27.5331 18.4407 27.5472 18.4386 27.5621 18.4386C30.54 18.4623 32.9207 20.8739 32.9207 23.9018V25.3299H25.2021L25.2018 23.4857C25.2018 22.0709 24.8278 20.7474 24.1805 19.6002C25.0871 18.8797 26.2261 18.4487 27.4743 18.4386H27.4742Z" fill="#103E13"/>
</g>
</svg>
