<svg width="34" height="35" viewBox="0 0 34 35" fill="none" xmlns="http://www.w3.org/2000/svg">
<g id="Icon">
<g id="Group 1">
<path id="Vector" d="M19.2834 13.9601C19.0662 13.9601 18.8896 13.7838 18.8896 13.5663V12.8972C18.8896 12.68 19.0659 12.5034 19.2834 12.5034C19.5006 12.5034 19.6771 12.6797 19.6771 12.8972V13.5663C19.6771 13.7838 19.5006 13.9601 19.2834 13.9601Z" fill="#103E13"/>
<path id="Vector_2" d="M17.628 13.9601C17.4108 13.9601 17.2343 13.7838 17.2343 13.5663V12.8972C17.2343 12.68 17.4105 12.5034 17.628 12.5034C17.8452 12.5034 18.0217 12.6797 18.0217 12.8972V13.5663C18.0215 13.7838 17.8455 13.9601 17.628 13.9601Z" fill="#103E13"/>
<path id="Vector_3" d="M15.9727 13.9601C15.7555 13.9601 15.579 13.7838 15.579 13.5663V12.8972C15.579 12.68 15.7553 12.5034 15.9727 12.5034C16.1899 12.5034 16.3665 12.6797 16.3665 12.8972V13.5663C16.3665 13.7838 16.1902 13.9601 15.9727 13.9601Z" fill="#103E13"/>
<path id="Vector_4" d="M19.2834 16.6965C19.0662 16.6965 18.8896 16.5202 18.8896 16.3027V15.6339C18.8896 15.4167 19.0659 15.2401 19.2834 15.2401C19.5006 15.2401 19.6771 15.4164 19.6771 15.6339V16.3027C19.6771 16.5202 19.5006 16.6965 19.2834 16.6965Z" fill="#103E13"/>
<path id="Vector_5" d="M17.628 16.6965C17.4108 16.6965 17.2343 16.5202 17.2343 16.3027V15.6339C17.2343 15.4167 17.4105 15.2401 17.628 15.2401C17.8452 15.2401 18.0217 15.4164 18.0217 15.6339V16.3027C18.0215 16.5202 17.8455 16.6965 17.628 16.6965Z" fill="#103E13"/>
<path id="Vector_6" d="M15.9727 16.6965C15.7555 16.6965 15.579 16.5202 15.579 16.3027V15.6339C15.579 15.4167 15.7553 15.2401 15.9727 15.2401C16.1899 15.2401 16.3665 15.4164 16.3665 15.6339V16.3027C16.3665 16.5202 16.1902 16.6965 15.9727 16.6965Z" fill="#103E13"/>
<path id="Vector_7" d="M19.2834 19.4328C19.0662 19.4328 18.8896 19.2566 18.8896 19.0391V18.3699C18.8896 18.1528 19.0659 17.9762 19.2834 17.9762C19.5006 17.9762 19.6771 18.1525 19.6771 18.3699V19.0391C19.6771 19.2566 19.5006 19.4328 19.2834 19.4328Z" fill="#103E13"/>
<path id="Vector_8" d="M17.628 19.4328C17.4108 19.4328 17.2343 19.2566 17.2343 19.0391V18.3699C17.2343 18.1528 17.4105 17.9762 17.628 17.9762C17.8452 17.9762 18.0217 18.1525 18.0217 18.3699V19.0391C18.0215 19.2566 17.8455 19.4328 17.628 19.4328Z" fill="#103E13"/>
<path id="Vector_9" d="M15.9727 19.4328C15.7555 19.4328 15.579 19.2566 15.579 19.0391V18.3699C15.579 18.1528 15.7553 17.9762 15.9727 17.9762C16.1899 17.9762 16.3665 18.1525 16.3665 18.3699V19.0391C16.3665 19.2566 16.1902 19.4328 15.9727 19.4328Z" fill="#103E13"/>
<path id="Vector_10" d="M19.2834 22.1687C19.0662 22.1687 18.8896 21.9924 18.8896 21.7749V21.1058C18.8896 20.8886 19.0659 20.712 19.2834 20.712C19.5006 20.712 19.6771 20.8883 19.6771 21.1058V21.7749C19.6771 21.9924 19.5006 22.1687 19.2834 22.1687Z" fill="#103E13"/>
<path id="Vector_11" d="M17.628 22.1687C17.4108 22.1687 17.2343 21.9924 17.2343 21.7749V21.1058C17.2343 20.8886 17.4105 20.712 17.628 20.712C17.8452 20.712 18.0217 20.8883 18.0217 21.1058V21.7749C18.0215 21.9924 17.8455 22.1687 17.628 22.1687Z" fill="#103E13"/>
<path id="Vector_12" d="M15.9727 22.1687C15.7555 22.1687 15.579 21.9924 15.579 21.7749V21.1058C15.579 20.8886 15.7553 20.712 15.9727 20.712C16.1899 20.712 16.3665 20.8883 16.3665 21.1058V21.7749C16.3665 21.9924 16.1902 22.1687 15.9727 22.1687Z" fill="#103E13"/>
<path id="Vector_13" d="M19.2834 24.9051C19.0662 24.9051 18.8896 24.7288 18.8896 24.5114V23.8425C18.8896 23.6253 19.0659 23.4487 19.2834 23.4487C19.5006 23.4487 19.6771 23.625 19.6771 23.8425V24.5114C19.6771 24.7285 19.5006 24.9051 19.2834 24.9051Z" fill="#103E13"/>
<path id="Vector_14" d="M17.628 24.9051C17.4108 24.9051 17.2343 24.7288 17.2343 24.5114V23.8425C17.2343 23.6253 17.4105 23.4487 17.628 23.4487C17.8452 23.4487 18.0217 23.625 18.0217 23.8425V24.5114C18.0215 24.7285 17.8455 24.9051 17.628 24.9051Z" fill="#103E13"/>
<path id="Vector_15" d="M15.9727 24.9051C15.7555 24.9051 15.579 24.7288 15.579 24.5114L15.5793 23.8425C15.5793 23.6253 15.7555 23.4487 15.973 23.4487C16.1902 23.4487 16.3668 23.625 16.3668 23.8425V24.5114C16.3665 24.7285 16.1902 24.9051 15.9727 24.9051Z" fill="#103E13"/>
<path id="Vector_16" d="M4.72451 27.6283C4.72451 27.8455 4.90079 28.022 5.11826 28.022H29.0963C29.3135 28.022 29.49 27.8458 29.49 27.6283C29.49 27.4111 29.3138 27.2345 29.0963 27.2345H28.3684V15.9295C28.3684 15.7123 28.1921 15.5357 27.9747 15.5357L21.546 15.536V7.38563C21.546 7.2478 21.474 7.12039 21.3565 7.049C21.2393 6.97733 21.0926 6.97294 20.9707 7.03637L13.6618 10.8418C13.5313 10.9096 13.4501 11.0441 13.4501 11.191V18.3102H6.37657C6.15938 18.3102 5.98282 18.4865 5.98282 18.704V27.2346H5.11738C4.90019 27.2343 4.72418 27.4106 4.72418 27.6281L4.72451 27.6283ZM21.5461 21.4995H27.5813V27.2349L21.5461 27.2346V21.4995ZM21.5461 18.7633H27.5813V20.7123L21.5461 20.712V18.7633ZM21.5461 16.3231H27.5813V17.9763H21.5461V16.3231ZM14.2371 11.4301L20.7583 8.03466V27.2342H14.2371V11.4301ZM8.71675 24.0897C8.71675 23.2726 9.3642 22.6075 10.1602 22.6075C10.9562 22.6075 11.6039 23.2723 11.6039 24.0897V27.2347H8.71675V24.0897ZM6.77029 19.0976H13.4499V27.2346H12.3914V24.0896C12.3914 22.8383 11.3909 21.8202 10.1602 21.8202C8.93009 21.8202 7.92955 22.838 7.92955 24.0896V27.2346H6.77029V19.0976Z" fill="#103E13"/>
</g>
</g>
</svg>
